<?xml version="1.0" standalone="no"?>
<!DOCTYPE svg PUBLIC "-//W3C//DTD SVG 20010904//EN"
 "http://www.w3.org/TR/2001/REC-SVG-20010904/DTD/svg10.dtd">
<svg version="1.0" xmlns="http://www.w3.org/2000/svg"
 width="1080.000000pt" height="720.000000pt" viewBox="0 0 1080.000000 720.000000"
 preserveAspectRatio="xMidYMid meet">

<g transform="translate(0.000000,720.000000) scale(0.100000,-0.100000)"
fill="#000000" stroke="none">
<path d="M5060 6769 c-209 -28 -372 -84 -510 -175 -248 -164 -415 -395 -489
-680 -27 -102 -41 -268 -31 -349 39 -295 98 -420 421 -885 65 -93 323 -467
404 -585 38 -55 87 -127 110 -160 23 -33 66 -95 95 -138 81 -118 117 -118 198
1 54 79 103 149 252 364 47 68 133 193 191 278 58 85 131 191 162 235 297 422
385 598 416 828 47 343 -73 691 -326 942 -176 174 -385 276 -648 315 -141 22
-148 22 -245 9z m261 -484 c325 -79 538 -430 460 -758 -54 -226 -201 -387
-426 -467 -119 -42 -305 -37 -426 12 -344 138 -501 528 -349 863 94 207 280
337 525 369 46 5 153 -4 216 -19z"/>
<path d="M10230 5970 c-71 -17 -218 -50 -395 -90 -172 -38 -501 -112 -735
-165 -135 -31 -283 -64 -330 -75 -47 -10 -166 -36 -265 -59 l-180 -40 -445
105 c-245 58 -526 125 -625 149 -99 23 -279 66 -400 95 -121 28 -232 55 -247
60 -14 5 -28 6 -31 4 -2 -3 0 -28 5 -56 5 -29 13 -97 16 -152 l7 -101 90 -22
c50 -12 223 -54 386 -92 163 -39 372 -89 465 -111 281 -68 325 -78 439 -104
61 -14 138 -33 173 -42 l62 -16 0 -360 0 -359 100 102 100 103 0 256 0 256 48
12 c26 6 139 32 252 57 295 66 565 127 800 180 362 82 463 105 556 124 50 11
97 21 105 23 12 3 14 -60 17 -417 l3 -420 66 -50 c36 -27 103 -90 149 -139
l84 -90 0 665 0 666 -23 43 c-42 79 -103 94 -247 60z"/>
<path d="M9240 4765 c-118 -15 -179 -29 -274 -65 -478 -178 -784 -669 -728
-1167 12 -107 49 -243 91 -335 52 -114 125 -229 335 -533 34 -49 118 -171 186
-270 68 -99 138 -200 155 -225 17 -25 61 -88 97 -140 35 -52 88 -129 117 -170
29 -41 63 -90 74 -108 24 -35 53 -48 90 -38 14 3 50 45 100 118 43 62 174 253
292 423 117 171 232 337 256 370 123 173 291 432 332 512 61 123 103 256 122
394 14 102 14 126 0 228 -8 62 -20 132 -26 155 -110 416 -410 715 -827 826
-41 11 -265 41 -287 39 -5 -1 -53 -7 -105 -14z m269 -477 c122 -23 263 -112
349 -221 64 -81 96 -146 123 -249 18 -69 21 -100 16 -183 -16 -272 -187 -489
-457 -581 -43 -15 -83 -19 -185 -18 -115 1 -138 4 -199 27 -222 85 -365 243
-416 462 -25 107 -25 188 0 287 53 212 191 371 392 452 108 42 237 51 377 24z"/>
<path d="M4022 2574 l3 -2171 27 -34 c14 -19 45 -44 68 -54 l42 -19 1011 253
c557 138 1020 252 1029 251 13 0 996 -231 1403 -330 92 -22 278 -66 463 -110
70 -17 154 -37 188 -46 59 -16 62 -15 200 16 76 17 189 42 249 56 61 13 157
35 215 48 288 65 419 95 740 165 102 23 212 48 245 56 33 8 119 28 190 44 72
16 173 39 226 51 105 24 140 46 165 106 12 28 14 192 14 961 0 904 0 927 -19
908 -10 -11 -52 -69 -93 -130 -40 -60 -100 -147 -131 -191 l-57 -81 -2 -649
-3 -649 -140 -31 c-77 -17 -203 -46 -280 -63 -77 -18 -270 -61 -430 -97 -159
-35 -326 -73 -370 -83 -44 -10 -125 -29 -180 -41 -55 -12 -157 -35 -226 -51
-70 -16 -132 -29 -138 -29 -7 0 -11 21 -11 55 l0 55 -100 0 -100 0 0 -55 c0
-52 -1 -55 -22 -50 -35 8 -347 82 -488 116 -125 30 -175 42 -410 97 -259 62
-668 159 -844 202 -68 17 -131 30 -140 30 -14 0 -16 58 -16 580 0 319 -3 580
-6 580 -4 0 -49 -26 -100 -57 l-94 -58 -2 -519 -3 -520 -883 -221 c-486 -121
-885 -219 -888 -216 -2 2 -4 829 -4 1838 l0 1833 -136 197 c-75 109 -143 205
-150 213 -12 12 -14 -304 -12 -2156z"/>
<path d="M6233 4662 c-29 -42 -70 -103 -93 -136 l-40 -59 0 -683 0 -682 78 45
c42 25 87 52 100 60 l22 13 0 760 c0 418 -3 760 -7 760 -5 0 -31 -35 -60 -78z"/>
<path d="M6754 4094 c-77 -93 -130 -171 -123 -179 7 -6 459 -98 462 -94 2 2
17 71 34 152 22 104 27 150 19 153 -11 4 -300 64 -308 64 -3 0 -40 -43 -84
-96z"/>
<path d="M7191 3959 c-17 -84 -30 -153 -29 -154 2 -1 140 -30 308 -64 168 -34
314 -65 324 -68 29 -8 16 14 -76 129 -149 187 -225 244 -381 287 -120 34 -109
43 -146 -130z"/>
<path d="M6720 3690 c-75 -14 -148 -67 -169 -123 -16 -41 -14 -57 8 -57 15 0
19 -10 23 -55 15 -180 255 -222 333 -59 14 30 20 35 41 30 23 -6 24 -4 24 41
-1 135 -131 246 -260 223z m83 -160 c33 -26 41 -63 23 -99 -38 -72 -146 -48
-146 33 0 73 68 109 123 66z"/>
<path d="M7675 3461 c-49 -23 -89 -64 -109 -113 -20 -47 -20 -46 7 -50 16 -2
21 -9 19 -25 -10 -72 55 -161 134 -183 81 -23 180 25 206 100 8 26 15 31 37
28 25 -3 26 -1 25 47 -4 157 -175 263 -319 196z m158 -152 c26 -33 22 -83 -9
-108 -90 -70 -178 43 -97 124 22 22 82 13 106 -16z"/>
<path d="M5129 3410 c-21 -4 -67 -30 -116 -67 -110 -85 -136 -144 -95 -224
l18 -35 -72 0 c-67 1 -75 -1 -104 -29 -60 -57 -130 -259 -130 -375 0 -55 4
-72 25 -100 30 -41 60 -59 97 -60 38 0 42 -13 13 -40 -32 -30 -50 -88 -41
-134 9 -45 90 -129 164 -169 100 -54 224 -84 282 -67 43 12 100 67 100 96 0
37 17 36 38 0 47 -80 119 -90 272 -36 133 47 211 84 242 115 30 30 44 79 35
124 -8 39 0 43 30 15 33 -31 83 -44 126 -34 33 7 266 159 319 208 36 33 51 82
43 134 l-7 41 36 -28 c55 -42 110 -39 218 13 48 22 106 46 130 53 97 26 142
62 162 130 l13 43 26 -41 c32 -50 90 -73 188 -73 37 0 102 -7 145 -16 85 -18
146 -14 173 10 10 9 20 16 23 16 3 0 5 -24 4 -53 0 -49 4 -60 46 -116 30 -40
53 -87 67 -134 30 -98 41 -119 78 -142 18 -11 32 -23 33 -26 0 -4 -14 -12 -31
-20 -37 -15 -89 -56 -89 -70 0 -6 -14 -47 -31 -92 -17 -45 -42 -110 -55 -145
-42 -109 -31 -181 35 -238 l25 -22 -42 -7 c-48 -8 -86 -35 -107 -75 -24 -47
-20 -173 9 -258 63 -186 182 -274 284 -212 18 11 35 20 38 20 3 0 3 -18 -1
-39 -5 -29 -1 -52 14 -85 16 -37 28 -49 68 -67 26 -12 55 -25 64 -30 25 -12
255 -59 290 -59 62 0 139 63 139 114 0 26 17 18 25 -11 10 -41 41 -79 80 -97
40 -19 91 -17 303 14 154 23 188 47 202 145 l5 40 19 -32 c22 -36 82 -73 120
-73 28 0 139 35 226 72 161 68 203 107 204 188 1 36 -5 55 -27 84 -55 71 -118
75 -256 13 -53 -24 -120 -52 -149 -62 -71 -23 -120 -66 -128 -113 -11 -62 -20
-70 -38 -34 -33 64 -95 74 -308 48 -64 -8 -134 -20 -155 -25 -42 -11 -87 -52
-98 -88 -7 -26 -25 -31 -25 -7 0 29 -35 76 -70 94 -19 10 -71 23 -114 30 -44
6 -112 23 -153 36 -90 29 -128 30 -171 4 -18 -11 -34 -20 -37 -20 -2 0 -1 24
2 53 5 48 2 56 -37 113 -36 54 -42 71 -49 140 -9 89 -30 140 -66 156 -34 16
-31 24 11 31 66 11 98 46 142 159 87 222 97 277 66 343 -9 20 -30 40 -50 50
-19 9 -34 18 -34 20 0 2 19 13 43 23 23 11 53 32 67 47 58 63 15 256 -90 397
-78 106 -158 133 -232 78 -37 -27 -40 -26 -32 14 15 83 -45 156 -143 176 -32
6 -72 16 -90 21 -17 5 -80 11 -140 12 -96 1 -112 -1 -144 -21 -39 -24 -57 -51
-68 -103 l-8 -34 -22 37 c-22 36 -88 78 -124 78 -35 0 -304 -102 -352 -134
-13 -8 -36 -31 -51 -51 -23 -31 -26 -42 -22 -90 5 -57 5 -57 -42 -24 -25 18
-49 22 -102 20 -23 -1 -187 -104 -310 -194 -40 -29 -61 -81 -55 -133 5 -48 -1
-54 -27 -25 -10 10 -37 24 -62 30 -48 12 -31 17 -274 -74 -111 -41 -180 -82
-180 -106 0 -4 -5 -20 -11 -36 l-11 -28 -13 31 c-17 40 -57 71 -109 84 -100
25 -119 33 -171 75 -29 24 -67 47 -82 51 -57 12 -58 13 -30 42 17 17 30 48 37
82 23 110 39 166 64 225 30 70 31 93 11 142 -21 49 -19 53 19 41 54 -17 98 -2
184 62 58 43 86 72 101 103 26 54 26 57 0 113 -32 67 -88 97 -160 84z"/>
<path d="M8220 2156 c0 -453 3 -587 12 -592 7 -5 52 -10 100 -12 l88 -4 0 459
0 460 -40 59 c-23 33 -64 94 -93 136 -29 43 -55 78 -59 78 -5 0 -8 -263 -8
-584z"/>
</g>
</svg>
